:SAMPLES-PER-SECOND 30
:FULLY-SPECIFIED
:DEGREES
259
root  48.8427 35.7037 2.88228 -126.873 88.6627 -123.482
RightUpLeg  -24.2421 1.82692 -3.22597
RightLeg  46.1085 0.520194 0.233595
RightFoot  -16.4643 -0.094156 0.439869
RightToes  -5.8209e-011 0 -3.6325e-017
Spine  38.1425 -2.00159 8.03181
Spine1  4.62004 1.00566 -1.3164
HEad  -65.2978 3.80824 -3.44601
LeftShoulder1  0.660149 1.38867 -25.0043
LeftArm  -27.1936 -16.634 -36.8882
LeftForeArm  114.867 -72.7985 -140.104
LeftHand  -0.32688 -0.708403 6.33465
RightShoulder  -0.0469771 -3.63997 21.8522
RightArm  -30.6067 15.2171 36.344
RightForeArm  99.6981 69.2794 145.763
RightHand  -0.939754 4.29682 -10.6038
LeftUpLeg  -26.3015 1.87662 5.02967
LeftLeg  46.1865 -1.88269 -1.70173
LeftFoot  -13.8517 0.11512 1.31617
LeftToes  -8.31281e-010 4.41007e-011 3.74621e-011
260
root  49.1068 37.0927 2.81258 -169.565 88.5992 -169.3
RightUpLeg  -22.0689 -0.465366 -4.22057
RightLeg  36.1517 1.70628 1.07976
RightFoot  -11.6228 -0.0734137 0.707584
RightToes  -5.8209e-011 0 -3.6325e-017
Spine  33.9062 -2.26529 8.86826
Spine1  1.88249 0.837003 -3.01672
HEad  -62.0098 2.73392 -2.45867
LeftShoulder1  0.804615 0.535079 -20.5518
LeftArm  -29.8716 -27.8806 -33.3436
LeftForeArm  84.4536 -77.9095 -110.5
LeftHand  -0.32732 -0.391478 6.70072
RightShoulder  0.159771 -2.81192 16.8564
RightArm  -33.2825 25.1625 34.0665
RightForeArm  75.138 75.9558 120.705
RightHand  -0.674003 6.27659 -5.86501
LeftUpLeg  -24.1417 1.42544 3.78886
LeftLeg  35.9819 -2.32332 -1.43771
LeftFoot  -8.47098 0.035338 0.611074
LeftToes  -8.31281e-010 4.41007e-011 3.74621e-011
261
root  49.2693 38.1655 2.84742 140.631 88.6236 138.642
RightUpLeg  -19.8735 -2.12165 -5.28104
RightLeg  27.2424 3.24911 1.60123
RightFoot  -6.88349 -0.0684903 0.503274
RightToes  -5.8209e-011 0 -3.6325e-017
Spine  30.747 -1.55243 8.13944
Spine1  -0.970229 1.10912 -4.09061
HEad  -57.9427 3.02514 -2.68608
LeftShoulder1  0.919106 -0.832698 -14.6914
LeftArm  -36.8409 -39.0811 -26.3765
LeftForeArm  20.5214 -74.7797 -49.2351
LeftHand  -0.291238 -0.372923 5.70227
RightShoulder  0.353867 -1.45187 10.0427
RightArm  -38.94 35.6425 28.7908
RightForeArm  32.2356 75.9527 53.1331
RightHand  12.7595 29.1093 32.6134
LeftUpLeg  -21.3657 2.36058 2.3889
LeftLeg  26.1945 -3.26405 -1.39947
LeftFoot  -2.84103 0.0329795 -0.184569
LeftToes  -8.31281e-010 4.41007e-011 3.74621e-011
262
root  49.3833 38.8949 2.84996 109.209 88.041 105.617
RightUpLeg  -17.6845 -4.3865 -5.95187
RightLeg  19.5451 5.69477 1.89062
RightFoot  -2.96245 -0.0867516 0.903762
RightToes  -5.8209e-011 0 -3.6325e-017
Spine  28.1221 -0.898948 7.78693
Spine1  -3.43 1.49634 -5.0056
HEad  -53.8823 3.25901 -2.95272
LeftShoulder1  0.859138 -2.83485 -5.67172
LeftArm  -51.5089 -48.3088 -18.9113
LeftForeArm  -9.13519 -57.3487 -19.0212
LeftHand  -0.0588732 1.11587 3.0296
RightShoulder  0.218244 0.947257 -2.88949
RightArm  -50.2418 40.3134 25.0734
RightForeArm  41.5518 60.5241 16.0528
RightHand  54.5359 53.1478 89.682
LeftUpLeg  -18.6292 3.87881 1.26055
LeftLeg  17.6851 -4.657 -1.36498
LeftFoot  1.60192 0.155057 -1.4506
LeftToes  -8.31281e-010 4.41007e-011 3.74621e-011
263
root  49.5338 39.3253 2.89865 95.3515 87.9778 90.8287
RightUpLeg  -15.2407 -7.0593 -5.41867
RightLeg  12.9237 8.86439 1.52401
RightFoot  -0.234748 -0.113808 1.16684
RightToes  -5.8209e-011 0 -3.6325e-017
Spine  26.8527 0.663095 6.1954
Spine1  -6.3434 2.05255 -1.37898
HEad  -49.3304 3.75086 -5.95675
LeftShoulder1  0.721675 -3.87264 -1.40189
LeftArm  -71.2319 -55.7931 -3.92409
LeftForeArm  -15.262 -33.4408 -6.42136
LeftHand  -0.361191 8.09809 0.31113
RightShoulder  -0.826982 3.83899 -22.7643
RightArm  -63.8704 39.7961 23.1045
RightForeArm  49.6133 38.3203 4.84443
RightHand  65.1374 54.2766 98.512
LeftUpLeg  -15.7565 5.33234 1.28736
LeftLeg  10.7025 -5.92474 -1.45922
LeftFoot  4.28072 0.286059 -2.30192
LeftToes  -8.31281e-010 4.41007e-011 3.74621e-011
264
root  49.7373 39.5338 2.94235 84.6283 88.0893 79.3914
RightUpLeg  -13.4204 -7.90568 -4.90288
RightLeg  8.15095 10.0249 0.853744
RightFoot  1.60627 -0.103835 1.01
RightToes  -5.8209e-011 0 -3.6325e-017
Spine  27.0326 2.01023 3.75251
Spine1  -10.0748 2.25951 4.282
HEad  -47.2431 6.03493 -10.8908
LeftShoulder1  0.73489 -3.42629 -2.66351
LeftArm  -84.5524 -60.2997 21.261
LeftForeArm  -28.1416 -11.9311 4.61375
LeftHand  -4.39771 41.4827 -13.0919
RightShoulder  -1.83632 4.64452 -35.6234
RightArm  -68.7318 45.2887 12.4243
RightForeArm  56.6314 13.3308 -5.79236
RightHand  88.6272 58.2534 116.935
LeftUpLeg  -13.021 5.15073 1.80677
LeftLeg  4.71168 -5.3972 -1.32231
LeftFoot  5.79513 0.231082 -1.76329
LeftToes  -8.31281e-010 4.41007e-011 3.74621e-011
265
root  49.9633 39.6404 2.95088 58.5836 88.1294 52.8239
RightUpLeg  -11.8748 -7.52953 -4.38689
RightLeg  4.36549 10.4908 0.270229
RightFoot  2.82383 -0.136501 1.24664
RightToes  -5.8209e-011 0 -3.6325e-017
Spine  28.2082 3.36714 1.66979
Spine1  -13.9053 2.91749 10.2723
HEad  -48.2381 7.87967 -16.4276
LeftShoulder1  0.582295 -0.0188579 -9.55702
LeftArm  -90.8079 -61.0088 47.8773
LeftForeArm  -41.3328 1.42913 8.15449
LeftHand  -18.7537 64.3214 -27.5878
RightShoulder  -1.60916 1.97298 -42.68
RightArm  -59.6483 55.7328 -4.82343
RightForeArm  37.7973 -5.14439 -12.8415
RightHand  135.196 61.1637 150.542
LeftUpLeg  -10.7673 4.99197 2.13879
LeftLeg  0.133853 -4.13809 -0.580751
LeftFoot  6.4094 0.197828 -1.52035
LeftToes  -8.31281e-010 4.41007e-011 3.74621e-011
266
root  50.2566 39.7225 2.97814 28.5676 87.6219 21.7034
RightUpLeg  -11.108 -6.81209 -3.68309
RightLeg  0.950818 10.9208 -0.396331
RightFoot  3.94224 -0.202738 1.71574
RightToes  -5.8209e-011 0 -3.6325e-017
Spine  28.24 4.78866 2.34051
Spine1  -16.1904 4.69634 11.1058
HEad  -47.2704 4.69873 -16.029
LeftShoulder1  -0.0322787 3.84292 -14.6516
LeftArm  -107.011 -60.0866 63.8231
LeftForeArm  -36.0779 0.159249 8.52868
LeftHand  -76.8187 80.0508 -93.0512
RightShoulder  -0.371629 -2.36185 -47.7439
RightArm  -67.5059 56.9791 -17.2487
RightForeArm  -12.2597 -3.72822 -8.7085
RightHand  156.554 48.8311 168.086
LeftUpLeg  -10.0923 5.0127 2.42951
LeftLeg  -2.46185 -2.67419 0.069346
LeftFoot  7.21175 0.133636 -1.08521
LeftToes  -8.31281e-010 4.41007e-011 3.74621e-011
267
root  50.4645 39.7302 3.03252 27.7235 87.3719 20.2158
RightUpLeg  -11.5606 -6.50051 -3.45474
RightLeg  1.01054 10.774 -0.596651
RightFoot  3.84011 -0.180703 1.55002
RightToes  -5.8209e-011 0 -3.6325e-017
Spine  29.4773 6.21698 3.63322
Spine1  -20.5046 6.7818 10.9232
HEad  -42.779 2.99858 -17.9675
LeftShoulder1  -0.74696 5.5685 -21.5402
LeftArm  -116.813 -58.7659 76.1448
LeftForeArm  -9.15896 -3.75653 6.86468
LeftHand  -63.2009 47.131 -112.82
RightShoulder  2.13586 -8.91415 -52.0424
RightArm  -69.0481 61.5291 -28.1609
RightForeArm  -106.487 -2.07487 0.623177
RightHand  146.57 35.8209 166.386
LeftUpLeg  -10.4311 4.97092 2.51446
LeftLeg  -2.42837 -2.56453 0.0937753
LeftFoot  7.05808 0.129858 -1.06742
LeftToes  -8.31281e-010 4.41007e-011 3.74621e-011
268
root  50.5929 39.7122 3.06709 51.6779 88.2276 44.4986
RightUpLeg  -11.5318 -6.83393 -3.79511
RightLeg  2.51552 9.88309 -0.399348
RightFoot  3.07634 -0.124594 1.15136
RightToes  -5.8209e-011 0 -3.6325e-017
Spine  31.854 6.68181 4.19144
Spine1  -25.3216 7.81748 12.1299
HEad  -38.4701 1.88908 -19.9844
LeftShoulder1  -1.93087 8.33363 -44.514
LeftArm  -130.863 -52.0793 104.313
LeftForeArm  3.1605 -8.06574 -2.1124
LeftHand  -60.2416 32.7885 -128.932
RightShoulder  5.01963 -15.3458 -55.1301
RightArm  -89.512 63.3546 -42.8611
RightForeArm  -144.033 -0.278213 -3.74548
RightHand  133.178 49.0194 155.584
LeftUpLeg  -10.727 4.58986 2.21409
LeftLeg  -1.08259 -3.49486 0.103274
LeftFoot  6.5992 0.110836 -0.955789
LeftToes  -8.31281e-010 4.41007e-011 3.74621e-011
269
root  50.7284 39.7209 3.08005 81.7372 88.7206 75.6839
RightUpLeg  -10.1431 -7.31183 -4.11093
RightLeg  3.01096 9.41488 -0.188653
RightFoot  2.58446 -0.112162 1.06326
RightToes  -5.8209e-011 0 -3.6325e-017
Spine  35.5271 4.64114 11.8545
Spine1  -30.9841 6.93544 -1.15738
HEad  -29.543 1.04697 -18.0613
LeftShoulder1  -1.87162 6.10454 -72.5105
LeftArm  -150.665 -37.6084 137.009
LeftForeArm  -25.7738 -8.9465 -16.8154
LeftHand  -126.138 47.4857 -156.677
RightShoulder  6.37343 -17.7891 -56.9857
RightArm  -97.3332 61.3511 -23.7149
RightForeArm  -82.4041 1.18871 -9.46881
RightHand  141.172 52.3228 158.383
LeftUpLeg  -9.67528 4.58532 2.12299
LeftLeg  -0.587084 -4.43091 0.0965984
LeftFoot  6.37604 0.0554362 -0.605765
LeftToes  -8.31281e-010 4.41007e-011 3.74621e-011
270
root  50.8544 39.7497 3.07173 92.7341 88.6867 86.8436
RightUpLeg  -9.62192 -7.4485 -4.21283
RightLeg  2.80128 9.35088 -0.187889
RightFoot  2.59244 -0.130845 1.21524
RightToes  -5.8209e-011 0 -3.6325e-017
Spine  38.8274 -0.376883 33.6758
Spine1  -34.6688 4.23405 -46.9699
HEad  -22.1317 -16.0379 0.19169
LeftShoulder1  -9.42615 17.5149 -56.2998
LeftArm  163.687 -36.6939 161.012
LeftForeArm  -7.58081 -7.62182 -15.863
LeftHand  -102.803 41.4869 -149.207
RightShoulder  5.81006 -15.6369 -60.6078
RightArm  -118.858 29.0798 28.5941
RightForeArm  6.51201 15.6973 -11.2837
RightHand  127.044 61.7879 144.297
LeftUpLeg  -9.19556 4.3525 1.96131
LeftLeg  -0.918225 -4.22167 0.350306
LeftFoot  6.59457 0.0207789 -0.386316
LeftToes  -8.31281e-010 4.41007e-011 3.74621e-011
271
root  50.9557 39.7663 3.07282 121.828 88.6081 115.944
RightUpLeg  -9.24206 -7.4736 -4.21685
RightLeg  2.62369 8.71409 -0.250917
RightFoot  2.59658 -0.125123 1.16917
RightToes  -5.8209e-011 0 -3.6325e-017
Spine  35.1071 0.962576 36.9506
Spine1  -24.8849 8.41859 -59.084
HEad  -32.034 -27.2166 11.024
LeftShoulder1  -8.65774 17.9089 -54.894
LeftArm  -171.559 -27.8409 168.546
LeftForeArm  -23.1756 -23.0964 -5.49674
LeftHand  -74.2693 33.3369 -141.835
RightShoulder  6.69877 -16.6431 -64.2872
RightArm  -86.3648 1.34512 74.2114
RightForeArm  2.19201 31.459 7.95562
RightHand  99.8988 65.8351 120.612
LeftUpLeg  -9.02375 4.47283 2.03216
LeftLeg  -1.14777 -4.9938 0.248213
LeftFoot  6.64262 0.0252837 -0.409446
LeftToes  -8.31281e-010 4.41007e-011 3.74621e-011
272
root  51.0135 39.7683 3.07574 141.512 88.0158 135.747
RightUpLeg  -8.8624 -7.57733 -4.45039
RightLeg  2.61971 8.02654 -0.283283
RightFoot  2.30162 -0.14866 1.3731
RightToes  -5.8209e-011 0 -3.6325e-017
Spine  28.3574 4.1268 -5.26677
Spine1  -18.7323 0.721924 25.3489
HEad  -42.1052 9.33277 -23.9858
LeftShoulder1  -46.0703 66.0744 -52.567
LeftArm  115.147 -69.1385 148.002
LeftForeArm  19.0237 -13.5804 -4.84023
LeftHand  -84.6495 34.5069 -146.491
RightShoulder  15.0973 -37.7018 -50.0464
RightArm  143.548 58.7447 -47.5587
RightForeArm  39.3862 21.4148 -0.877314
RightHand  102.055 65.2744 122.507
LeftUpLeg  -8.73181 4.51409 1.88474
LeftLeg  -1.52862 -5.90456 0.193794
LeftFoot  6.83886 0.021571 -0.356714
LeftToes  -8.31281e-010 4.41007e-011 3.74621e-011
273
root  51.0205 39.7654 3.04257 147.048 87.5289 141.239
RightUpLeg  -8.85122 -7.71429 -4.67166
RightLeg  2.71856 7.64659 -0.309887
RightFoot  2.22353 -0.141558 1.31742
RightToes  -5.8209e-011 0 -3.6325e-017
Spine  20.1371 1.79 -34.6051
Spine1  -3.87301 -16.6418 84.0208
HEad  -57.2055 32.0823 -56.2894
LeftShoulder1  67.3133 41.1629 131.726
LeftArm  -52.0186 -12.0963 -134.777
LeftForeArm  10.6658 -31.9444 -6.10035
LeftHand  -93.0631 34.6128 -150.725
RightShoulder  -0.0910107 -16.7047 -14.7519
RightArm  118.936 21.8287 -118.836
RightForeArm  18.0541 17.9126 -8.46176
RightHand  81.617 66.047 103.396
LeftUpLeg  -8.81394 4.26558 1.60146
LeftLeg  -1.59177 -6.1558 0.279904
LeftFoot  6.91377 0.0196791 -0.349411
LeftToes  -8.31281e-010 4.41007e-011 3.74621e-011
